<?xml version="1.0" standalone="no"?>
<!DOCTYPE svg PUBLIC "-//W3C//DTD SVG 20010904//EN"
 "http://www.w3.org/TR/2001/REC-SVG-20010904/DTD/svg10.dtd">
<svg version="1.0" xmlns="http://www.w3.org/2000/svg"
 width="300.000000pt" height="300.000000pt" viewBox="0 0 300.000000 300.000000"
 preserveAspectRatio="xMidYMid meet">
<metadata>
Created by potrace 1.10, written by Peter Selinger 2001-2011
</metadata>
<g transform="translate(0.000000,300.000000) scale(0.100000,-0.100000)"
fill="#000000" stroke="none">
<path d="M1413 2030 c-18 -12 -35 -30 -38 -42 -6 -16 -12 -18 -33 -12 -15 5
-46 8 -69 8 -100 1 -137 -113 -78 -237 39 -82 168 -196 253 -225 60 -20 134
17 255 128 34 32 71 73 81 91 17 29 11 25 -35 -21 -93 -95 -176 -158 -228
-175 -32 -10 -111 3 -107 18 1 7 1 9 -1 5 -14 -25 -163 114 -201 187 -37 72
-37 154 -1 191 21 20 36 26 67 26 23 0 50 -5 60 -11 16 -8 25 -4 53 24 51 50
82 59 127 36 21 -11 44 -31 51 -45 13 -23 12 -28 -4 -48 -13 -16 -10 -15 9 4
28 26 29 27 12 52 -39 60 -119 81 -173 46z"/>
<path d="M1351 1724 c0 -11 3 -14 6 -6 3 7 2 16 -1 19 -3 4 -6 -2 -5 -13z"/>
<path d="M1361 1693 c-1 -14 36 -103 43 -103 3 0 -3 19 -13 43 -10 23 -20 49
-24 57 -3 8 -6 10 -6 3z"/>
<path d="M959 1423 c-45 -5 -76 -36 -87 -88 -7 -38 -32 -62 -32 -31 0 20 -37
91 -55 106 -14 12 -55 5 -66 -12 -6 -9 40 -159 52 -168 3 -3 11 -22 18 -42 31
-93 99 -80 135 26 11 32 23 59 28 62 4 3 8 -24 8 -59 0 -49 4 -68 18 -80 23
-21 24 -21 52 3 20 18 25 18 39 6 24 -22 63 -28 95 -16 21 8 32 7 43 -1 11
-10 17 -9 29 3 14 14 19 14 46 0 23 -11 38 -12 62 -5 21 7 37 6 48 -1 13 -8
22 -6 37 8 17 15 21 31 21 77 0 73 -11 101 -49 128 -27 19 -34 20 -75 10 -25
-6 -46 -16 -46 -22 0 -25 -14 6 -17 39 -4 38 -22 64 -46 64 -23 0 -58 -45 -51
-65 6 -15 3 -17 -22 -12 -19 3 -37 -1 -56 -15 -35 -24 -51 -15 -43 24 7 30
-16 70 -39 66 -6 -1 -27 -3 -47 -5z m55 -19 c20 -8 21 -43 1 -50 -24 -10 -47
14 -34 37 11 21 11 21 33 13z m226 -124 c0 -121 -1 -130 -19 -130 -11 0 -21 6
-24 13 -4 10 -7 10 -18 0 -22 -22 -77 -16 -104 12 -55 54 -16 155 59 155 19 0
38 -4 41 -10 14 -22 20 -7 17 40 -4 48 -3 50 22 50 l26 0 0 -130z m-429 35
c16 -44 29 -88 29 -97 0 -40 16 -13 42 70 33 105 39 115 66 110 20 -3 19 -8
-25 -125 -43 -117 -46 -123 -73 -123 -25 0 -30 6 -50 63 -12 34 -33 90 -46
125 l-24 63 26 -3 c23 -3 30 -13 55 -83z m219 -75 c0 -89 0 -90 -25 -90 -25 0
-25 1 -25 90 0 89 0 90 25 90 25 0 25 -1 25 -90z m375 65 c22 -21 25 -33 25
-90 0 -58 -2 -65 -20 -65 -12 0 -20 7 -20 17 0 15 -1 15 -18 0 -10 -10 -33
-17 -50 -17 -53 0 -81 50 -47 84 18 18 79 31 95 21 8 -5 11 -1 8 11 -4 23 -34
30 -63 14 -12 -7 -31 -10 -41 -8 -17 3 -16 6 8 31 36 36 89 37 123 2z"/>
<path d="M1106 1269 c-33 -47 32 -107 72 -67 15 15 15 61 0 76 -19 19 -55 14
-72 -9z m53 -13 c14 -16 4 -46 -14 -46 -16 0 -29 35 -20 50 9 14 20 13 34 -4z"/>
<path d="M1323 1223 c-18 -7 -16 -32 2 -40 16 -5 55 22 55 39 0 9 -37 10 -57
1z"/>
<path d="M1573 1423 c-32 -6 -83 -57 -83 -83 0 -26 18 -61 38 -76 13 -9 12
-12 -6 -16 -29 -8 -37 -32 -23 -66 24 -56 107 -79 163 -44 33 20 33 20 57 1
26 -21 71 -25 88 -8 8 8 17 7 32 -3 18 -11 23 -11 31 2 8 13 13 13 31 2 19
-12 24 -11 45 9 19 18 24 33 24 71 0 36 4 48 15 48 11 0 15 -13 15 -53 0 -72
38 -110 70 -72 8 10 17 12 24 6 20 -16 77 -23 92 -10 11 9 17 9 28 0 14 -12
46 -5 46 10 0 5 -11 9 -25 9 -14 0 -25 5 -25 12 0 9 -3 9 -12 0 -16 -16 -80
-16 -96 0 -17 17 -15 63 3 78 9 7 36 14 61 14 34 1 44 5 42 16 -4 18 -46 26
-61 11 -13 -13 -57 -15 -57 -2 0 19 54 51 85 51 56 0 74 -25 77 -104 2 -45 7
-71 16 -74 19 -6 16 122 -4 154 -37 55 -104 65 -157 23 -24 -18 -25 -18 -52 3
-17 13 -38 20 -58 19 -18 -2 -45 -3 -61 -2 -16 0 -37 -4 -47 -10 -14 -7 -27
-5 -50 7 -20 10 -43 14 -63 10 -34 -7 -76 -38 -76 -55 0 -6 -7 -11 -15 -11
-20 0 -19 7 5 37 22 29 16 50 -24 76 -28 19 -63 26 -93 20z m84 -38 c11 -8 23
-24 26 -35 4 -17 0 -20 -23 -20 -16 0 -30 7 -34 16 -9 23 -61 15 -61 -11 0
-14 12 -24 42 -35 81 -30 106 -80 61 -127 -31 -33 -100 -32 -133 2 -32 31 -32
55 -1 55 16 0 26 -7 29 -21 4 -16 12 -20 39 -17 27 2 33 7 33 27 0 19 -8 27
-39 38 -55 19 -76 40 -76 79 0 23 7 38 22 48 28 20 87 21 115 1z m193 -75 c16
-16 20 -33 20 -90 0 -63 -2 -70 -20 -70 -12 0 -20 7 -20 16 0 14 -1 14 -16 0
-18 -19 -75 -21 -92 -4 -17 17 -15 63 2 78 8 6 34 13 58 15 24 2 42 6 41 9 -2
3 -3 11 -3 16 0 6 -13 10 -30 10 -16 0 -30 -4 -30 -9 0 -5 -11 -11 -25 -13
-32 -6 -33 14 -3 42 29 27 91 27 118 0z m90 4 c0 -14 1 -14 16 0 16 17 61 21
80 8 23 -15 34 -52 34 -111 0 -58 -1 -61 -25 -61 -23 0 -24 3 -27 68 -3 63 -5
67 -27 70 -35 5 -51 -22 -51 -85 0 -48 -2 -53 -22 -53 -22 0 -23 3 -23 90 0
87 0 90 22 90 14 0 23 -6 23 -16z m-335 -85 c12 -19 -5 -23 -22 -6 -16 16 -16
17 -1 17 9 0 20 -5 23 -11z"/>
<path d="M1762 1218 c-16 -16 -15 -25 4 -32 19 -7 50 8 58 29 4 11 -2 15 -22
15 -16 0 -33 -5 -40 -12z"/>
<path d="M2142 1218 c-13 -13 2 -38 23 -38 12 0 45 31 45 43 0 12 -55 8 -68
-5z"/>
<path d="M1507 1049 c-19 -11 -24 -74 -6 -85 6 -3 25 8 43 25 l31 31 -27 -12
c-16 -7 -28 -19 -28 -25 0 -7 -4 -13 -10 -13 -5 0 -10 16 -10 36 0 35 1 36 30
32 34 -5 37 -3 12 11 -11 6 -24 6 -35 0z"/>
<path d="M831 1013 c-1 -23 3 -44 7 -47 4 -2 6 12 4 32 -5 56 -10 62 -11 15z"/>
<path d="M862 1026 c12 -27 13 -27 22 -7 13 30 24 26 29 -11 4 -32 4 -32 5 5
2 27 -2 37 -13 37 -9 0 -18 -7 -21 -15 -6 -14 -8 -13 -20 2 -13 16 -13 14 -2
-11z"/>
<path d="M978 1043 c7 -3 16 -2 19 1 4 3 -2 6 -13 5 -11 0 -14 -3 -6 -6z"/>
<path d="M1014 1042 c4 -7 1 -12 -8 -12 -9 0 -16 -4 -16 -10 0 -16 27 -12 33
5 4 8 1 17 -5 21 -7 4 -8 3 -4 -4z"/>
<path d="M1107 1043 c-4 -3 -7 -15 -7 -25 0 -10 -7 -18 -15 -18 -8 0 -15 -4
-15 -8 0 -4 9 -8 19 -8 14 0 20 9 23 33 4 36 4 36 -5 26z"/>
<path d="M1180 1030 c-27 -51 32 -92 73 -51 12 11 16 21 10 21 -6 0 -13 -7
-17 -15 -11 -29 -66 -11 -66 21 0 7 7 20 16 28 8 9 11 16 5 16 -6 0 -15 -9
-21 -20z"/>
<path d="M1241 1033 c7 -12 15 -20 18 -17 3 2 -3 12 -13 22 -17 16 -18 16 -5
-5z"/>
<path d="M1335 1043 c31 -7 40 -20 26 -37 -7 -8 -8 -17 -3 -20 14 -9 23 36 10
51 -6 7 -20 12 -32 12 -20 -1 -20 -2 -1 -6z"/>
<path d="M1613 1015 c-14 -29 -15 -37 -3 -48 8 -7 10 -7 7 -1 -8 14 12 74 24
74 13 0 11 -14 -3 -28 -9 -9 -9 -12 0 -12 7 0 12 6 13 13 0 6 4 3 9 -8 13 -31
12 -39 -5 -25 -9 7 -18 10 -22 6 -8 -8 -2 -13 22 -18 26 -4 31 24 9 56 -22 34
-31 33 -51 -9z"/>
<path d="M1727 1044 c-9 -10 -9 -72 1 -78 4 -2 6 14 4 36 -4 37 -3 39 19 36
19 -2 23 -8 21 -28 -2 -18 0 -22 9 -13 18 18 6 48 -21 51 -14 2 -29 0 -33 -4z"/>
<path d="M1845 1019 c-16 -29 -14 -59 2 -59 15 0 37 19 30 26 -3 4 -13 1 -22
-6 -18 -15 -18 -12 -4 29 6 17 15 31 19 31 12 0 31 -60 23 -74 -4 -8 -3 -8 5
-1 15 14 -6 85 -24 85 -8 0 -21 -14 -29 -31z"/>
<path d="M2048 1043 c6 -2 18 -2 25 0 6 3 1 5 -13 5 -14 0 -19 -2 -12 -5z"/>
<path d="M1303 1005 c0 -22 2 -30 4 -17 2 12 2 30 0 40 -3 9 -5 -1 -4 -23z"/>
<path d="M2130 1030 c0 -5 5 -10 11 -10 5 0 7 5 4 10 -3 6 -8 10 -11 10 -2 0
-4 -4 -4 -10z"/>
<path d="M2163 1005 c0 -22 2 -30 4 -17 2 12 2 30 0 40 -3 9 -5 -1 -4 -23z"/>
<path d="M1131 1014 c0 -11 3 -14 6 -6 3 7 2 16 -1 19 -3 4 -6 -2 -5 -13z"/>
<path d="M1202 1008 c2 -12 10 -23 18 -23 22 0 19 39 -3 43 -15 3 -18 -1 -15
-20z m23 3 c3 -5 1 -12 -5 -16 -5 -3 -10 1 -10 9 0 18 6 21 15 7z"/>
<path d="M1330 1020 c0 -5 5 -10 10 -10 6 0 10 5 10 10 0 6 -4 10 -10 10 -5 0
-10 -4 -10 -10z"/>
<path d="M1520 1020 c0 -5 5 -10 10 -10 6 0 10 5 10 10 0 6 -4 10 -10 10 -5 0
-10 -4 -10 -10z"/>
<path d="M1740 1020 c0 -5 7 -10 15 -10 8 0 15 5 15 10 0 6 -7 10 -15 10 -8 0
-15 -4 -15 -10z"/>
<path d="M2038 1000 c2 -16 6 -30 8 -30 2 0 4 14 4 30 0 17 -4 30 -8 30 -5 0
-7 -13 -4 -30z"/>
<path d="M2072 1000 c0 -19 2 -27 5 -17 2 9 2 25 0 35 -3 9 -5 1 -5 -18z"/>
<path d="M850 998 c0 -9 5 -20 10 -23 13 -8 13 5 0 25 -8 13 -10 13 -10 -2z"/>
<path d="M886 994 c-8 -21 -8 -21 7 -27 10 -4 13 2 9 19 -5 28 -8 30 -16 8z"/>
<path d="M2130 988 c0 -19 2 -20 10 -8 13 19 13 30 0 30 -5 0 -10 -10 -10 -22z"/>
<path d="M990 991 c0 -6 8 -11 18 -12 11 -1 9 -4 -8 -10 l-25 -8 25 2 c29 2
34 30 8 35 -10 2 -18 -1 -18 -7z"/>
<path d="M1330 988 c0 -9 7 -19 16 -22 15 -6 15 -4 3 11 -7 10 -15 20 -16 22
-2 2 -3 -3 -3 -11z"/>
<path d="M1740 993 c0 -12 28 -38 34 -32 2 2 -5 13 -15 23 -11 11 -19 15 -19
9z"/>
<path d="M1100 970 c-23 -7 -23 -8 -3 -9 12 -1 25 4 28 9 3 6 5 10 3 9 -2 -1
-14 -5 -28 -9z"/>
</g>
</svg>
